<?xml version="1.0" encoding="utf-8"?>
<svg version="1.1" viewBox="0 0 1024 1024" xmlns="http://www.w3.org/2000/svg" xmlns:xlink="http://www.w3.org/1999/xlink">
	<path d="M317.44 503.466667c-278.186667-66.56-117.76-358.4-117.76-358.4s-17.066667 122.88 109.226667 122.88c122.88 0 133.12 110.933333 134.826666 119.466666 85.333333 87.04 303.786667 317.44 341.333334 356.693334 66.56 68.266667 105.813333 129.706667 90.453333 141.653333-8.533333 8.533333-66.56-13.653333-148.48-73.386667-46.08-35.84-307.2-233.813333-409.6-308.906666z" fill="#56A2F9"></path>
	<path d="M452.266667 406.186667l92.16 88.746666-92.16 112.64-109.226667-95.573333z" fill="#EFF2F7"></path>
	<path d="M317.44 512C39.253333 445.44 199.68 153.6 199.68 153.6s-17.066667 122.88 109.226667 122.88c122.88 0 133.12 112.64 134.826666 119.466667L317.44 512c1.706667 0 0 0 0 0z" fill="#FFD300"></path>
	<path d="M797.013333 732.16c-13.653333-13.653333-175.786667-184.32-182.613333-192.853333l-1.706667-1.706667c-11.946667-11.946667-23.893333-23.893333-34.133333-35.84l1.706667-1.706667-10.24-8.533333c-47.786667-49.493333-83.626667-87.04-109.226667-112.64 0-5.12-1.706667-11.946667-3.413333-18.773333-3.413333-15.36-10.24-30.72-20.48-46.08-25.6-40.96-68.266667-64.853333-128-64.853334-47.786667 0-75.093333-18.773333-87.04-49.493333-6.826667-17.066667-8.533333-34.133333-6.826667-49.493333v-3.413334c3.413333-18.773333-22.186667-27.306667-32.426667-10.24-1.706667 3.413333-5.12 8.533333-8.533333 15.36-5.12 11.946667-11.946667 25.6-17.066667 39.253334-17.066667 47.786667-25.6 93.866667-23.893333 139.946666 5.12 92.16 59.733333 158.72 172.373333 187.733334 39.253333 29.013333 100.693333 75.093333 186.026667 139.946666l1.706667 1.706667c3.413333 1.706667 203.093333 153.6 220.16 167.253333 80.213333 59.733333 148.48 92.16 170.666666 73.386667 30.72-25.6-8.533333-88.746667-87.04-168.96zM450.56 418.133333c20.48 22.186667 47.786667 49.493333 81.92 85.333334l-71.68 85.333333c-42.666667-32.426667-76.8-58.026667-104.106667-78.506667l93.866667-92.16zM170.666667 329.386667c-1.706667-37.546667 5.12-78.506667 18.773333-119.466667v1.706667c17.066667 44.373333 56.32 71.68 117.76 71.68 47.786667 0 78.506667 18.773333 98.986667 49.493333 11.946667 18.773333 17.066667 40.96 18.773333 54.613333 0 1.706667 0 3.413333 1.706667 5.12l-97.28 97.28-1.706667-1.706666c-1.706667-1.706667-3.413333-1.706667-6.826667-3.413334-100.693333-22.186667-145.066667-76.8-150.186666-155.306666z m663.893333 529.066666c-27.306667-11.946667-61.44-34.133333-97.28-61.44-17.066667-13.653333-216.746667-163.84-220.16-167.253333l-1.706667 1.706667c-10.24-6.826667-18.773333-13.653333-27.306666-20.48l68.266666-81.92c10.24 10.24 20.48 22.186667 32.426667 32.426666l1.706667 1.706667c8.533333 8.533333 168.96 177.493333 184.32 192.853333 32.426667 32.426667 58.026667 64.853333 73.386666 88.746667 6.826667 8.533333 10.24 17.066667 11.946667 23.893333-6.826667-1.706667-15.36-5.12-25.6-10.24z" fill="#242741"></path>
</svg>